:version 1.10
:name ASF
:units
  mass 1
  length 1
  angle deg
:documentation
  ASF file generated by Kaydara
:root
  axis xyz
  order  tx ty tz rx ry rz
  position 0 0 0
  orientation 0 0 0
:bonedata
  begin
    id 1
    name RightUpLegDummy
    direction -1 2.30186e-007 8.31532e-007
    length 4.04083
    axis 0 0 0 xyz
  end
  begin
    id 2
    name RightUpLeg
    direction -0.000919234 -0.999985 0.00544864
    length 17.4221
    axis -3.80308 -0.00076134 -0.0523649 xyz
    dof rx ry rz
  end
  begin
    id 3
    name RightLeg
    direction -0.000919271 -0.999984 -0.00555045
    length 17.1239
    axis 4.00314 0.0181274 -0.183583 xyz
    dof rx ry rz
  end
  begin
    id 4
    name RightFoot
    direction -2.57843e-005 -4.04509e-007 1
    length 6.72091
    axis 8.18909e-005 -0.122003 -0.403008 xyz
    dof rx ry rz
  end
  begin
    id 5
    name RightToes
    direction 0.00116825 -0.014069 0.9999
    length 3.85082
    axis 0.000514414 0.540638 -0.356797 xyz
    dof rx ry rz
  end
  begin
    id 6
    name SpineDummy
    direction 0.0168869 0.966876 -0.254689
    length 6.99894
    axis 0 0 0 xyz
  end
  begin
    id 7
    name Spine
    direction -0.0132008 0.999903 0.00446247
    length 11.1999
    axis -0.00148109 0.00725429 0.756411 xyz
    dof rx ry rz
  end
  begin
    id 8
    name Spine1
    direction 0 0 0
    length 0
    axis -0.000934958 0.0245693 1.46543 xyz
    dof rx ry rz
  end
  begin
    id 9
    name HEadDummy
    direction -0.0255732 0.999672 0.00128215
    length 3.43865
    axis -0.000934958 0.0245693 1.46543 xyz
  end
  begin
    id 10
    name HEad
    direction -0.0472656 0.980052 0.19304
    length 5.12695
    axis -0.000934954 0.0245693 1.46543 xyz
    dof rx ry rz
  end
  begin
    id 11
    name LeftShoulder1Dummy
    direction 0.953098 0.301717 -0.023914
    length 3.68488
    axis -0.000934958 0.0245693 1.46543 xyz
  end
  begin
    id 12
    name LeftShoulder1
    direction 0.962466 0.271167 0.0112566
    length 3.13809
    axis -0.000934958 0.0245693 1.46543 xyz
    dof rx ry rz
  end
  begin
    id 13
    name LeftArm
    direction 0.999943 0.00455037 -0.00961766
    length 11.3419
    axis -23.1648 0.685459 1.22814 xyz
    dof rx ry rz
  end
  begin
    id 14
    name LeftForeArm
    direction 0.999332 0.0131969 0.0340885
    length 8.70632
    axis -9.90633 0.618216 0.0826942 xyz
    dof rx ry rz
  end
  begin
    id 15
    name LeftHand
    direction 0.994373 -0.0366703 0.0993905
    length 5.32135
    axis 0.00675269 0.680415 0.445699 xyz
    dof rx ry rz
  end
  begin
    id 16
    name RightShoulderDummy
    direction -0.967298 0.252589 -0.0230903
    length 3.68488
    axis -0.000934958 0.0245693 1.46543 xyz
  end
  begin
    id 17
    name RightShoulder
    direction -0.975062 0.221602 0.0120823
    length 3.13809
    axis 0.216257 0.0246515 1.45863 xyz
    dof rx ry rz
  end
  begin
    id 18
    name RightArm
    direction -0.99886 -0.00851186 -0.0469687
    length 10.3947
    axis -23.196 0.23503 -0.532632 xyz
    dof rx ry rz
  end
  begin
    id 19
    name RightForeArm
    direction -0.99909 0.00114866 0.0426317
    length 8.68355
    axis -9.91764 -0.134943 0.610517 xyz
    dof rx ry rz
  end
  begin
    id 20
    name RightHand
    direction -0.992888 -0.0489538 0.10852
    length 5.28593
    axis -0.00275396 -0.197403 0.246414 xyz
    dof rx ry rz
  end
  begin
    id 21
    name LeftUpLegDummy
    direction 1 -2.30186e-007 -8.31532e-007
    length 4.04083
    axis 0 0 0 xyz
  end
  begin
    id 22
    name LeftUpLeg
    direction -0.000920097 -1 2.79241e-006
    length 17.4221
    axis -3.48782 0.00143434 -0.0532288 xyz
    dof rx ry rz
  end
  begin
    id 23
    name LeftLeg
    direction -0.000920097 -1 2.7912e-006
    length 17.1239
    axis 3.68162 -0.00806512 -0.0529896 xyz
    dof rx ry rz
  end
  begin
    id 24
    name LeftFoot
    direction -2.57845e-005 -3.987e-007 1
    length 6.72091
    axis 3.02372e-005 -0.00147829 -0.214229 xyz
    dof rx ry rz
  end
  begin
    id 25
    name LeftToes
    direction 0.00813577 -0.00488255 0.999955
    length 3.85048
    axis 3.89895e-005 -0.0014783 -0.214229 xyz
    dof rx ry rz
  end
:hierarchy
  begin
    root RightUpLegDummy SpineDummy LeftUpLegDummy
    RightUpLegDummy RightUpLeg
    RightUpLeg RightLeg
    RightLeg RightFoot
    RightFoot RightToes
    SpineDummy Spine
    Spine Spine1
    Spine1 HEadDummy LeftShoulder1Dummy RightShoulderDummy
    HEadDummy HEad
    LeftShoulder1Dummy LeftShoulder1
    LeftShoulder1 LeftArm
    LeftArm LeftForeArm
    LeftForeArm LeftHand
    RightShoulderDummy RightShoulder
    RightShoulder RightArm
    RightArm RightForeArm
    RightForeArm RightHand
    LeftUpLegDummy LeftUpLeg
    LeftUpLeg LeftLeg
    LeftLeg LeftFoot
    LeftFoot LeftToes
  end

:SAMPLES-PER-SECOND 30
:FULLY-SPECIFIED
:DEGREES
65
root  -12.949 33.85 -12.5154 -158.574 -6.06323 177.779
RightUpLeg  -36.1458 -19.8427 4.74406
RightLeg  29.1303 -2.55603 -1.22444
RightFoot  -5.72533 0.00284499 0.505636
RightToes  -20.6637 -0.0851896 -0.182137
Spine  2.55514 1.19078 2.06844
Spine1  5.15748 2.98407 3.91189
HEad  -50.2033 9.01169 -6.37144
LeftShoulder1  -1.94126e-019 -3.10601e-018 -2.51263e-017
LeftArm  -14.6523 16.7431 -83.6818
LeftForeArm  28.0706 -28.1423 -4.52072
LeftHand  -0.438094 -0.55741 8.66103
RightShoulder  -4.96962e-017 0 -2.36833e-017
RightArm  -16.919 -1.73295 68.6027
RightForeArm  53.4387 15.8424 1.11097
RightHand  -0.324465 -1.58231 -9.74874
LeftUpLeg  -40.0829 8.43837 3.02077
LeftLeg  35.7588 7.94109 4.94316
LeftFoot  2.02274 -0.00880318 0.508407
LeftToes  -33.283 2.03064e-006 1.83538e-008
66
root  -13.1183 33.9397 -12.5937 -158.376 -6.41632 177.555
RightUpLeg  -35.6718 -20.1869 4.31787
RightLeg  28.1863 -2.66076 -1.21994
RightFoot  -5.08436 0.00348533 0.48624
RightToes  -21.4973 -0.089777 -0.188751
Spine  2.53768 1.27542 2.05964
Spine1  5.12472 3.16018 3.89554
HEad  -48.6441 9.17629 -6.971
LeftShoulder1  -1.94126e-019 -3.10601e-018 -2.51263e-017
LeftArm  -14.8326 17.3516 -83.8421
LeftForeArm  27.8304 -28.5549 -4.62623
LeftHand  -0.431772 -0.517695 8.59131
RightShoulder  -4.96962e-017 0 -2.36833e-017
RightArm  -16.9381 -1.2688 68.4429
RightForeArm  53.82 15.3553 1.13612
RightHand  -0.326148 -1.57571 -9.78422
LeftUpLeg  -40.3411 8.33247 3.41726
LeftLeg  35.9733 9.19717 5.76222
LeftFoot  1.54796 -0.00621289 0.46815
LeftToes  -31.1895 2.03064e-006 1.83538e-008
67
root  -13.33 34.0169 -12.7015 -158.232 -6.77898 177.384
RightUpLeg  -35.0453 -20.2965 3.76448
RightLeg  27.2552 -3.00642 -1.31777
RightFoot  -4.52753 0.00286012 0.490722
RightToes  -22.2745 -0.094498 -0.194854
Spine  2.44897 1.32673 2.0092
Spine1  4.94492 3.25361 3.82758
HEad  -47.4244 9.53446 -7.67125
LeftShoulder1  -1.94126e-019 -3.10601e-018 -2.51263e-017
LeftArm  -15.0004 18.1714 -83.8104
LeftForeArm  27.7217 -28.616 -4.64586
LeftHand  -0.431713 -0.559943 8.64983
RightShoulder  -4.96962e-017 0 -2.36833e-017
RightArm  -16.7091 -1.17643 68.384
RightForeArm  53.8003 15.2555 1.14573
RightHand  -0.321711 -1.6092 -9.72985
LeftUpLeg  -40.3667 7.87536 4.22426
LeftLeg  35.463 9.61421 5.90226
LeftFoot  2.13347 -0.0143522 0.59465
LeftToes  -30.5303 2.03064e-006 1.83538e-008
68
root  -13.6024 34.0739 -12.8632 -158.323 -7.22702 177.287
RightUpLeg  -34.1095 -20.4685 3.09554
RightLeg  26.4494 -3.40199 -1.43266
RightFoot  -4.09324 0.00223117 0.500818
RightToes  -22.9559 -0.0985424 -0.200153
Spine  2.35724 1.35718 1.92999
Spine1  4.75301 3.30977 3.69499
HEad  -46.5952 9.89906 -8.23601
LeftShoulder1  -1.94126e-019 -3.10601e-018 -2.51263e-017
LeftArm  -15.4854 19.0716 -83.686
LeftForeArm  27.7809 -28.3428 -4.58058
LeftHand  -0.437434 -0.614757 8.57038
RightShoulder  -4.96962e-017 0 -2.36833e-017
RightArm  -16.2031 -1.48533 68.3864
RightForeArm  53.2789 15.5212 1.13552
RightHand  -0.315888 -1.63999 -9.62456
LeftUpLeg  -40.0135 7.10936 5.38384
LeftLeg  34.2492 9.5247 5.57672
LeftFoot  3.26846 -0.0277881 0.803474
LeftToes  -31.2751 2.03064e-006 1.83538e-008
69
root  -13.9132 34.1117 -13.0531 -158.557 -7.69058 177.288
RightUpLeg  -32.9079 -20.4577 2.33326
RightLeg  25.5897 -3.96112 -1.59644
RightFoot  -3.68431 0.00143808 0.518586
RightToes  -23.814 -0.103725 -0.206758
Spine  2.26644 1.37696 1.84281
Spine1  4.56121 3.3421 3.55004
HEad  -46.1433 10.2727 -8.62559
LeftShoulder1  -1.94126e-019 -3.10601e-018 -2.51263e-017
LeftArm  -15.9905 20.0054 -83.4645
LeftForeArm  27.6554 -27.8802 -4.4821
LeftHand  -0.439836 -0.674958 8.55489
RightShoulder  -4.96962e-017 0 -2.36833e-017
RightArm  -15.7264 -1.93626 68.431
RightForeArm  52.7531 15.9076 1.12686
RightHand  -0.310174 -1.65742 -9.48829
LeftUpLeg  -39.4502 6.42151 6.71416
LeftLeg  32.347 9.16561 4.97198
LeftFoot  3.98268 -0.0334744 0.891856
LeftToes  -32.1952 2.03064e-006 1.83538e-008
70
root  -14.2717 34.1183 -13.2583 -158.958 -8.37375 177.566
RightUpLeg  -31.4684 -20.3685 1.70861
RightLeg  24.7364 -4.74245 -1.82717
RightFoot  -3.32854 0.000185263 0.548011
RightToes  -24.6527 -0.108885 -0.213138
Spine  2.17393 1.34926 1.8349
Spine1  4.3736 3.29179 3.5375
HEad  -46.0518 10.6622 -8.86955
LeftShoulder1  -1.94126e-019 -3.10601e-018 -2.51263e-017
LeftArm  -16.6846 20.993 -83.3056
LeftForeArm  27.5544 -27.5026 -4.40226
LeftHand  -0.440956 -0.597277 8.55272
RightShoulder  -4.96962e-017 0 -2.36833e-017
RightArm  -14.9858 -2.57134 68.3969
RightForeArm  52.0861 16.426 1.14148
RightHand  -0.299753 -1.72541 -9.32343
LeftUpLeg  -38.8925 5.92283 8.21685
LeftLeg  30.0703 8.88233 4.37631
LeftFoot  3.63982 -0.0263576 0.781241
LeftToes  -32.5132 2.03064e-006 1.83538e-008
71
root  -14.6927 34.1067 -13.4621 -159.13 -8.88974 177.849
RightUpLeg  -30.2813 -20.0145 1.02194
RightLeg  23.9398 -5.61537 -2.07165
RightFoot  -3.02801 -0.000614818 0.575824
RightToes  -25.3785 -0.113426 -0.218598
Spine  1.9974 1.35213 1.76946
Spine1  4.01667 3.27615 3.46
HEad  -46.2816 10.9236 -9.03535
LeftShoulder1  -1.94126e-019 -3.10601e-018 -2.51263e-017
LeftArm  -17.3961 21.9085 -83.1693
LeftForeArm  27.524 -27.0008 -4.29213
LeftHand  -0.439617 -0.571176 8.65642
RightShoulder  -4.96962e-017 0 -2.36833e-017
RightArm  -14.8326 -3.16229 68.408
RightForeArm  51.9119 16.6518 1.15594
RightHand  -0.300085 -1.72954 -9.3441
LeftUpLeg  -38.4943 5.57407 9.41993
LeftLeg  27.3358 9.24918 4.023
LeftFoot  2.88396 -0.0175627 0.644548
LeftToes  -31.9966 2.03064e-006 1.83538e-008
72
root  -15.1793 34.0577 -13.6706 -159.287 -9.35921 178.203
RightUpLeg  -29.3324 -19.7928 0.347016
RightLeg  23.5724 -6.33446 -2.28881
RightFoot  -2.8926 2.72133e-005 0.606374
RightToes  -26.1977 -0.118633 -0.22469
Spine  1.78116 1.34588 1.69369
Spine1  3.57996 3.24607 3.36014
HEad  -46.6265 11.2107 -9.16932
LeftShoulder1  -1.94126e-019 -3.10601e-018 -2.51263e-017
LeftArm  -17.9269 22.8994 -83.0161
LeftForeArm  27.438 -26.6996 -4.22903
LeftHand  -0.441405 -0.564564 8.63394
RightShoulder  -4.96962e-017 0 -2.36833e-017
RightArm  -14.7509 -3.82204 68.4331
RightForeArm  51.7167 16.7882 1.17181
RightHand  -0.298103 -1.73991 -9.30583
LeftUpLeg  -38.248 5.45557 10.2178
LeftLeg  24.618 9.79862 3.72174
LeftFoot  2.24146 -0.0105113 0.534955
LeftToes  -31.4338 2.03064e-006 1.83538e-008
